<mxfile host="app.diagrams.net" agent="Mozilla/5.0 (Macintosh; Intel Mac OS X 10_15_7) AppleWebKit/537.36 (KHTML, like Gecko) Chrome/136.0.0.0 Safari/537.36" version="27.0.6">
  <diagram id="C5RBs43oDa-KdzZeNtuy" name="Page-1">
    <mxGraphModel dx="1412" dy="810" grid="1" gridSize="10" guides="1" tooltips="1" connect="1" arrows="1" fold="1" page="1" pageScale="1" pageWidth="827" pageHeight="1169" math="0" shadow="0">
      <root>
        <mxCell id="WIyWlLk6GJQsqaUBKTNV-0" />
        <mxCell id="WIyWlLk6GJQsqaUBKTNV-1" parent="WIyWlLk6GJQsqaUBKTNV-0" />
        <mxCell id="AEa-gzwiNnX9SvsJEN1D-8" style="edgeStyle=orthogonalEdgeStyle;rounded=0;orthogonalLoop=1;jettySize=auto;html=1;entryX=0;entryY=0.5;entryDx=0;entryDy=0;endArrow=block;endFill=0;startArrow=block;startFill=0;shadow=1;" parent="WIyWlLk6GJQsqaUBKTNV-1" source="AEa-gzwiNnX9SvsJEN1D-0" target="AEa-gzwiNnX9SvsJEN1D-7" edge="1">
          <mxGeometry relative="1" as="geometry" />
        </mxCell>
        <mxCell id="AEa-gzwiNnX9SvsJEN1D-0" value="Order Service&lt;br&gt;(Eureka Client)" style="rounded=1;whiteSpace=wrap;html=1;shadow=1;" parent="WIyWlLk6GJQsqaUBKTNV-1" vertex="1">
          <mxGeometry x="80" y="75" width="120" height="55" as="geometry" />
        </mxCell>
        <mxCell id="AEa-gzwiNnX9SvsJEN1D-5" value="Payment Service&lt;br&gt;(Eureka Client)" style="rounded=1;whiteSpace=wrap;html=1;shadow=1;" parent="WIyWlLk6GJQsqaUBKTNV-1" vertex="1">
          <mxGeometry x="440" y="75" width="120" height="55" as="geometry" />
        </mxCell>
        <mxCell id="AEa-gzwiNnX9SvsJEN1D-10" style="edgeStyle=orthogonalEdgeStyle;rounded=0;orthogonalLoop=1;jettySize=auto;html=1;entryX=0.5;entryY=1;entryDx=0;entryDy=0;endArrow=block;endFill=0;startArrow=none;startFill=0;shadow=1;" parent="WIyWlLk6GJQsqaUBKTNV-1" source="AEa-gzwiNnX9SvsJEN1D-6" target="AEa-gzwiNnX9SvsJEN1D-0" edge="1">
          <mxGeometry relative="1" as="geometry" />
        </mxCell>
        <mxCell id="AEa-gzwiNnX9SvsJEN1D-6" value="Inventory Service&lt;br&gt;(Eureka Client)" style="rounded=1;whiteSpace=wrap;html=1;shadow=1;" parent="WIyWlLk6GJQsqaUBKTNV-1" vertex="1">
          <mxGeometry x="80" y="200" width="120" height="50" as="geometry" />
        </mxCell>
        <mxCell id="AEa-gzwiNnX9SvsJEN1D-9" style="edgeStyle=orthogonalEdgeStyle;rounded=0;orthogonalLoop=1;jettySize=auto;html=1;entryX=0;entryY=0.5;entryDx=0;entryDy=0;endArrow=block;endFill=0;startArrow=block;startFill=0;shadow=1;" parent="WIyWlLk6GJQsqaUBKTNV-1" source="AEa-gzwiNnX9SvsJEN1D-7" target="AEa-gzwiNnX9SvsJEN1D-5" edge="1">
          <mxGeometry relative="1" as="geometry" />
        </mxCell>
        <mxCell id="AEa-gzwiNnX9SvsJEN1D-7" value="Eureka Server&lt;br&gt;(Service Registry)" style="whiteSpace=wrap;html=1;aspect=fixed;rounded=1;shadow=1;" parent="WIyWlLk6GJQsqaUBKTNV-1" vertex="1">
          <mxGeometry x="280" y="60" width="85" height="85" as="geometry" />
        </mxCell>
      </root>
    </mxGraphModel>
  </diagram>
</mxfile>
